<svg width="24" height="24" viewBox="0 0 24 24" fill="none" xmlns="http://www.w3.org/2000/svg">
<path d="M10.5 22H6C5.46957 22 4.96086 21.7893 4.58579 21.4142C4.21071 21.0391 4 20.5304 4 20V4C4 3.46957 4.21071 2.96086 4.58579 2.58579C4.96086 2.21071 5.46957 2 6 2H14C14.3169 1.99922 14.6308 2.06121 14.9236 2.18238C15.2164 2.30356 15.4823 2.48152 15.706 2.706L19.294 6.294C19.5185 6.51767 19.6964 6.78358 19.8176 7.07639C19.9388 7.3692 20.0008 7.68311 20 8V14" stroke="#3C87FF" stroke-width="2" stroke-linecap="round" stroke-linejoin="round"/>
<path d="M14 2V7C14 7.26522 14.1054 7.51957 14.2929 7.70711C14.4804 7.89464 14.7348 8 15 8H20" stroke="#3C87FF" stroke-width="2" stroke-linecap="round" stroke-linejoin="round"/>
<path d="M14 20L16 22L20 18" stroke="#3C87FF" stroke-width="2" stroke-linecap="round" stroke-linejoin="round"/>
</svg>
